<?xml version="1.0" encoding="UTF-8" standalone="no"?>
<!-- Created with Inkscape (http://www.inkscape.org/) -->

<svg
   xmlns:dc="http://purl.org/dc/elements/1.1/"
   xmlns:cc="http://creativecommons.org/ns#"
   xmlns:rdf="http://www.w3.org/1999/02/22-rdf-syntax-ns#"
   xmlns:svg="http://www.w3.org/2000/svg"
   xmlns="http://www.w3.org/2000/svg"
   xmlns:sodipodi="http://sodipodi.sourceforge.net/DTD/sodipodi-0.dtd"
   xmlns:inkscape="http://www.inkscape.org/namespaces/inkscape"
   width="228.60904mm"
   height="57.436455mm"
   viewBox="0 0 810.03203 203.515"
   id="svg3648"
   version="1.1"
   inkscape:version="0.91 r13725"
   sodipodi:docname="rew_logo.svg">
  <defs
     id="defs3650">
    <linearGradient
       x1="0"
       y1="0"
       x2="1"
       y2="0"
       gradientUnits="userSpaceOnUse"
       gradientTransform="matrix(17.36821,67.380539,67.380539,-17.36821,167.60254,233.38379)"
       spreadMethod="pad"
       id="linearGradient118">
      <stop
         style="stop-opacity:1;stop-color:#639e3f"
         offset="0"
         id="stop120" />
      <stop
         style="stop-opacity:1;stop-color:#bed63a"
         offset="0.857147"
         id="stop122" />
      <stop
         style="stop-opacity:1;stop-color:#bed63a"
         offset="1"
         id="stop124" />
    </linearGradient>
    <linearGradient
       x1="0"
       y1="0"
       x2="1"
       y2="0"
       gradientUnits="userSpaceOnUse"
       gradientTransform="matrix(9.4201965,66.150772,66.150772,-9.4201965,135.38379,249.07617)"
       spreadMethod="pad"
       id="linearGradient96">
      <stop
         style="stop-opacity:1;stop-color:#639e3f"
         offset="0"
         id="stop98" />
      <stop
         style="stop-opacity:1;stop-color:#bed63a"
         offset="0.857147"
         id="stop100" />
      <stop
         style="stop-opacity:1;stop-color:#bed63a"
         offset="1"
         id="stop102" />
    </linearGradient>
    <linearGradient
       x1="0"
       y1="0"
       x2="1"
       y2="0"
       gradientUnits="userSpaceOnUse"
       gradientTransform="matrix(12.169739,50.32904,50.32904,-12.169739,111.13037,252.18555)"
       spreadMethod="pad"
       id="linearGradient74">
      <stop
         style="stop-opacity:1;stop-color:#639e3f"
         offset="0"
         id="stop76" />
      <stop
         style="stop-opacity:1;stop-color:#bed63a"
         offset="0.857147"
         id="stop78" />
      <stop
         style="stop-opacity:1;stop-color:#bed63a"
         offset="1"
         id="stop80" />
    </linearGradient>
    <linearGradient
       x1="0"
       y1="0"
       x2="1"
       y2="0"
       gradientUnits="userSpaceOnUse"
       gradientTransform="matrix(172.42351,-19.036255,-19.036255,-172.42351,58.373535,334.19043)"
       spreadMethod="pad"
       id="linearGradient52">
      <stop
         style="stop-opacity:1;stop-color:#ffffff"
         offset="0"
         id="stop54" />
      <stop
         style="stop-opacity:1;stop-color:#224681"
         offset="0.63742988"
         id="stop56" />
      <stop
         style="stop-opacity:1;stop-color:#224681"
         offset="1"
         id="stop58" />
    </linearGradient>
    <clipPath
       clipPathUnits="userSpaceOnUse"
       id="clipPath16">
      <path
         d="M 0,600 800,600 800,0 0,0 0,600 Z"
         id="path18"
         inkscape:connector-curvature="0" />
    </clipPath>
  </defs>
  <sodipodi:namedview
     id="base"
     pagecolor="#ffffff"
     bordercolor="#666666"
     borderopacity="1.0"
     inkscape:pageopacity="0.0"
     inkscape:pageshadow="2"
     inkscape:zoom="0.35"
     inkscape:cx="-29.983982"
     inkscape:cy="84.61465"
     inkscape:document-units="px"
     inkscape:current-layer="layer1"
     showgrid="false"
     fit-margin-top="0"
     fit-margin-left="0"
     fit-margin-right="0"
     fit-margin-bottom="0"
     inkscape:window-width="1920"
     inkscape:window-height="1018"
     inkscape:window-x="-8"
     inkscape:window-y="-8"
     inkscape:window-maximized="1" />
  <metadata
     id="metadata3653">
    <rdf:RDF>
      <cc:Work
         rdf:about="">
        <dc:format>image/svg+xml</dc:format>
        <dc:type
           rdf:resource="http://purl.org/dc/dcmitype/StillImage" />
        <dc:title></dc:title>
      </cc:Work>
    </rdf:RDF>
  </metadata>
  <g
     inkscape:label="Layer 1"
     inkscape:groupmode="layer"
     id="layer1"
     transform="translate(22.158875,-413.46185)">
    <g
       transform="matrix(1.25,0,0,-1.25,-113.392,876.58498)"
       id="g12">
      <g
         id="g14"
         clip-path="url(#clipPath16)">
        <g
           id="g20"
           transform="translate(717.5781,249.5303)">
          <path
             d="m 0,0 c -2.338,3.142 -6.498,5.815 -12.453,8.128 -4.92,1.914 -8.063,3.882 -9.391,5.714 -1.418,1.921 -2.117,4.028 -2.117,6.371 0,2.895 0.865,5.343 2.602,7.458 1.728,2.08 3.921,3.088 6.771,3.096 2.672,0 4.922,-0.961 6.85,-2.922 1.922,-1.963 3.312,-4.817 4.123,-8.606 l 0.133,-0.649 5.89,2.434 -0.088,0.453 c -0.67,3.076 -1.568,5.594 -2.726,7.544 -1.674,2.792 -3.76,4.913 -6.27,6.337 -2.486,1.421 -5.15,2.136 -7.974,2.136 -4.625,0.009 -8.446,-1.813 -11.295,-5.373 -2.838,-3.551 -4.262,-7.805 -4.254,-12.693 -0.008,-4.451 1.271,-8.243 3.832,-11.294 2.568,-3.077 6.777,-5.738 12.627,-8.017 4.256,-1.631 7.049,-3.269 8.338,-4.776 1.754,-2.072 2.623,-4.553 2.634,-7.53 -0.011,-3.305 -0.984,-6.089 -2.939,-8.469 -1.941,-2.348 -4.543,-3.508 -7.992,-3.508 -2.457,0 -4.5,0.655 -6.196,1.957 -1.72,1.331 -3.111,3.116 -4.185,5.364 -0.625,1.336 -1.209,3.282 -1.727,5.832 l -0.138,0.625 -0.592,-0.216 -5.465,-1.962 0.096,-0.471 c 0.707,-3.519 1.629,-6.322 2.795,-8.401 1.656,-3.036 3.84,-5.435 6.523,-7.166 2.68,-1.725 5.662,-2.597 8.889,-2.597 l 0.029,0 c 5.133,0 9.34,1.925 12.445,5.722 3.112,3.785 4.666,8.37 4.659,13.676 C 3.434,-7.103 2.305,-3.147 0,0 m -57.203,6.295 -9.695,0 0.007,23.225 11.395,0 c 3.662,0 6.283,-1.07 8.025,-3.166 1.783,-2.132 2.68,-4.859 2.688,-8.254 0,-2.445 -0.471,-4.56 -1.385,-6.378 -0.918,-1.812 -2.191,-3.053 -3.844,-3.805 -2.39,-1.086 -4.785,-1.622 -7.191,-1.622 m 16.053,1.413 c 1.798,3 2.695,6.428 2.695,10.266 0,3.505 -0.752,6.742 -2.262,9.67 -1.51,2.93 -3.611,5.129 -6.273,6.529 -2.67,1.396 -6.139,2.076 -10.405,2.076 l -15.265,0 0,-66.156 5.769,0 0,29.518 12.286,0 11.339,-29.518 6.186,0 -11.777,31.06 c 3.396,1.488 5.986,3.684 7.707,6.555 m -66.239,-6.252 17.596,0 0,7.362 -17.596,0 0,20.146 23.653,0 0,7.279 -29.414,0 0,-66.15 31.697,0 0,7.369 -25.936,0 0,23.994 z m -50.154,27.47 15.342,0 0,-58.828 5.773,0 0,58.828 15.213,0 0,7.325 -36.328,0 0,-7.325 z M -178.887,8.125 c -4.929,1.92 -8.074,3.885 -9.396,5.725 -1.424,1.919 -2.117,4.02 -2.117,6.355 0,2.903 0.863,5.351 2.605,7.456 1.717,2.093 3.924,3.104 6.766,3.11 2.675,-0.006 4.918,-0.961 6.853,-2.918 1.92,-1.971 3.311,-4.827 4.115,-8.614 l 0.137,-0.653 5.899,2.438 -0.098,0.457 c -0.668,3.072 -1.568,5.59 -2.731,7.548 -1.671,2.784 -3.755,4.909 -6.257,6.333 -2.491,1.417 -5.166,2.132 -7.981,2.132 -4.627,0.013 -8.445,-1.809 -11.291,-5.373 -2.838,-3.551 -4.267,-7.805 -4.256,-12.693 -0.011,-4.451 1.274,-8.244 3.838,-11.296 2.561,-3.069 6.772,-5.729 12.615,-8.008 4.258,-1.638 7.053,-3.278 8.348,-4.783 1.754,-2.072 2.621,-4.553 2.621,-7.534 0,-3.293 -0.971,-6.085 -2.931,-8.467 -1.94,-2.339 -4.545,-3.502 -7.991,-3.514 -2.461,0 -4.506,0.663 -6.193,1.969 -1.729,1.323 -3.121,3.106 -4.186,5.36 -0.623,1.336 -1.211,3.292 -1.736,5.834 l -0.129,0.625 -0.596,-0.216 -5.459,-1.964 0.094,-0.469 c 0.703,-3.528 1.623,-6.324 2.785,-8.397 1.666,-3.042 3.846,-5.445 6.528,-7.166 2.683,-1.735 5.662,-2.599 8.892,-2.599 l 0.034,0 c 5.126,0 9.334,1.925 12.441,5.72 3.113,3.783 4.666,8.368 4.656,13.684 0,4.69 -1.129,8.646 -3.431,11.788 -2.346,3.154 -6.504,5.83 -12.448,8.13 m -50.646,-10.452 7.547,31.365 7.463,-31.365 -15.01,0 z m 3.398,38.57 -0.103,-0.414 -15.783,-65.736 5.857,0 4.851,20.171 18.555,0 4.803,-20.171 5.828,0 -15.68,66.15 -8.328,0 z m -45.248,-50.803 -13.613,50.811 -8.83,0 0,-66.164 5.765,0 0,55.52 14.829,-55.52 3.597,0 14.903,55.532 0,-55.532 5.697,0 0,66.164 -8.819,0 -13.529,-50.811 z m -41.076,-4.386 c -2.506,-2.754 -5.613,-4.108 -9.456,-4.108 l -12.062,0 0,23.741 10.699,0 c 2.727,0 5.13,-0.511 7.239,-1.508 2.098,-1.007 3.625,-2.404 4.635,-4.211 1.013,-1.84 1.529,-3.882 1.529,-6.175 0,-3.314 -0.873,-5.855 -2.584,-7.739 m -21.518,48.347 11.594,0 c 3.852,-0.004 6.619,-1.075 8.463,-3.161 1.881,-2.138 2.809,-4.66 2.809,-7.667 -0.008,-3.168 -1.047,-5.78 -3.155,-7.96 -2.029,-2.101 -5.858,-3.251 -11.54,-3.241 l -8.171,0 0,22.029 z m 20.946,-25.136 c 2.619,1.658 4.619,3.749 5.968,6.263 1.481,2.746 2.229,5.669 2.217,8.728 0.012,4.448 -1.513,8.426 -4.508,11.836 -3.035,3.451 -7.519,5.168 -13.29,5.159 l -17.07,0.009 0,-66.158 17.961,-0.009 0.033,0 c 5.683,0 10.202,1.859 13.388,5.602 3.16,3.675 4.768,7.86 4.768,12.46 0,3.271 -0.86,6.409 -2.559,9.388 -1.557,2.751 -3.875,4.998 -6.908,6.722 m -61.503,-2.799 17.597,0 0,7.364 -17.597,0 0,20.142 23.654,0 0,7.282 -29.416,0 0,-66.156 31.695,0 0,7.366 -25.933,0 0,24.002 z m -28.476,-14.697 -9.554,49.487 -5.692,0 -9.643,-49.487 -9.562,49.487 -5.724,0 0.124,-0.658 12.577,-65.496 5.082,0 9.968,51.137 9.902,-51.137 4.95,0 12.859,66.154 -5.629,0 -9.658,-49.487 z m 301.424,67.413 -21.818,0 0,16.054 14.808,0 0,5.383 -14.808,0 0,13.408 19.896,0 0,5.327 -24.926,0 0,-45.562 26.848,0 0,5.39 z m -51.283,-5.39 5.029,0 0,40.209 12.805,0 0,5.352 -30.74,0 0,-5.352 12.906,0 0,-40.209 z m -33.027,19.202 6.195,20.923 6.127,-20.923 -12.322,0 z m 2.65,26.36 -0.111,-0.394 -13.348,-45.159 5.117,0 4.082,13.779 15.524,0 4.037,-13.779 5.095,0 -13.295,45.553 -7.101,0 z m -28.627,-45.562 5.025,0 0,40.213 12.811,0 0,5.349 -30.744,0 0,-5.349 12.908,0 0,-40.213 z m -17.326,12.563 c 0,3.252 -0.977,6.022 -2.94,8.206 -2.007,2.178 -5.513,3.997 -10.515,5.577 -4.141,1.304 -6.795,2.662 -7.867,3.883 -1.174,1.29 -1.721,2.661 -1.733,4.206 0.012,1.902 0.699,3.515 2.131,4.94 1.422,1.392 3.271,2.083 5.67,2.095 2.258,-0.012 4.14,-0.659 5.742,-1.986 1.592,-1.319 2.736,-3.225 3.408,-5.784 l 0.145,-0.568 5.14,1.732 -0.136,0.496 c -0.563,2.126 -1.332,3.864 -2.328,5.229 -1.42,1.928 -3.202,3.391 -5.307,4.369 -2.106,0.967 -4.352,1.461 -6.717,1.456 -3.885,0.005 -7.103,-1.231 -9.523,-3.695 -2.418,-2.447 -3.651,-5.426 -3.651,-8.819 0,-3.107 1.116,-5.775 3.299,-7.873 2.176,-2.137 5.729,-3.939 10.647,-5.497 3.574,-1.121 5.931,-2.246 6.99,-3.249 1.441,-1.399 2.135,-3.018 2.142,-4.996 -0.007,-2.19 -0.785,-4.028 -2.406,-5.63 -1.605,-1.573 -3.789,-2.376 -6.697,-2.376 -2.072,0 -3.789,0.451 -5.203,1.336 -1.436,0.907 -2.59,2.095 -3.471,3.605 -0.512,0.893 -1,2.209 -1.43,3.937 l -0.144,0.551 -0.547,-0.161 -4.219,-1.232 -0.508,-0.141 0.127,-0.516 c 0.596,-2.433 1.381,-4.367 2.375,-5.813 1.414,-2.102 3.272,-3.764 5.537,-4.945 2.264,-1.178 4.774,-1.779 7.483,-1.779 4.322,0 7.871,1.306 10.523,3.934 2.639,2.603 3.983,5.815 3.983,9.508 m -34.446,-7.169 -21.822,0 0,16.05 14.807,-0.006 0,5.387 -14.807,0 0,13.412 19.903,0 0,5.324 -24.924,0 0,-45.561 26.843,0 0,5.394 z m -50.683,0.079 -19.474,0 0,40.088 -4.998,0 0,-45.552 24.472,0 0,5.464 z m -53.316,13.729 6.204,20.926 6.128,-20.926 -12.332,0 z m 2.661,26.366 -0.119,-0.392 -13.351,-45.167 5.129,0 4.081,13.782 15.515,0 4.036,-13.782 5.097,0 -13.287,45.559 -7.101,0 z m -37.697,-24.124 14.805,0 0,5.383 -14.805,0 0,13.408 19.905,0 0,5.327 -24.927,0 0,-45.562 26.849,0 0,5.395 -21.827,0 0,16.049 z m -37.05,19.18 9.503,0 c 3.086,-0.007 5.291,-0.751 6.727,-2.148 1.47,-1.438 2.187,-3.223 2.197,-5.49 0,-1.633 -0.38,-3.025 -1.131,-4.233 -0.751,-1.199 -1.783,-2.036 -3.182,-2.552 -2.006,-0.732 -4.019,-1.104 -6.051,-1.104 l -8.063,0 0,15.527 z m 0,-20.451 10.221,0 9.54,-20.164 5.425,0 -9.936,21.276 c 2.779,1.027 4.919,2.509 6.367,4.47 1.541,2.075 2.314,4.482 2.314,7.142 0,2.452 -0.649,4.709 -1.943,6.741 -1.287,2.035 -3.08,3.541 -5.33,4.507 -2.252,0.957 -5.166,1.423 -8.752,1.423 l -12.935,0 0,-45.559 5.029,0 0,20.164 z"
             style="fill:#231f20;fill-opacity:1;fill-rule:nonzero;stroke:none"
             id="path22"
             inkscape:connector-curvature="0" />
        </g>
        <g
           id="g24"
           transform="translate(234.0669,282.4316)">
          <path
             d="m 0,0 c 0.15,1.592 0.274,4.419 0.274,6.663 0,44.155 -35.795,79.948 -79.954,79.948 -44.151,0 -79.947,-35.793 -79.947,-79.948 0,-44.155 35.796,-79.948 79.947,-79.948 30.159,0 56.419,16.695 70.035,41.344 0,0 17.294,9.118 24.022,15.158 0,0 -9.013,12.189 -14.377,16.783"
             style="fill:#ffffff;fill-opacity:1;fill-rule:evenodd;stroke:none"
             id="path26"
             inkscape:connector-curvature="0" />
        </g>
        <g
           id="g28"
           transform="translate(227.6465,253.5605)">
          <path
             d="m 0,0 c -1.373,-0.687 -2.823,-1.381 -4.335,-2.067 -0.792,-1.453 -1.638,-2.873 -2.518,-4.27 -3.124,-4.944 -6.781,-9.518 -10.898,-13.633 -14.212,-14.21 -33.821,-22.988 -55.508,-22.988 -21.678,0 -41.294,8.778 -55.504,22.988 -5.425,5.427 -10.055,11.64 -13.711,18.46 -0.61,1.134 -1.19,2.281 -1.739,3.446 -4.835,10.181 -7.54,21.575 -7.54,33.598 0,21.678 8.783,41.303 22.99,55.506 14.21,14.21 33.826,22.993 55.504,22.993 21.687,0 41.296,-8.783 55.508,-22.993 C -3.541,76.837 5.24,57.212 5.24,35.534 5.24,34.624 5.218,33.727 5.188,32.829 5.142,31.471 5.063,30.131 4.952,28.801 5.814,27.859 6.694,26.902 7.579,25.918 11.344,21.771 15.32,17.279 19.499,12.423 17.082,10.393 10.512,5.27 0,0 M 22.647,13.222 C 17.434,19.306 12.526,24.83 7.949,29.83 c 0.13,1.891 0.2,3.791 0.2,5.704 -0.002,44.958 -36.449,81.403 -81.408,81.404 -44.956,-0.001 -81.401,-36.446 -81.401,-81.404 0,-44.962 36.445,-81.402 81.401,-81.408 30.485,0.006 57.049,16.762 70.996,41.566 16.255,7.531 24.721,15.449 24.803,15.528 0.564,0.527 0.611,1.417 0.107,2.002"
             style="fill:#cacaca;fill-opacity:1;fill-rule:nonzero;stroke:none"
             id="path30"
             inkscape:connector-curvature="0" />
        </g>
        <g
           id="g32"
           transform="translate(98.5518,248.3018)">
          <path
             d="m 0,0 c 12.584,-17.187 32.9,-28.357 55.835,-28.357 20.799,0 39.444,9.181 52.126,23.706 C 82.57,-12.286 46.244,-15.49 0,0"
             style="fill:#224681;fill-opacity:1;fill-rule:nonzero;stroke:none"
             id="path34"
             inkscape:connector-curvature="0" />
        </g>
        <g
           id="g36"
           transform="translate(123.5508,320.6655)">
          <path
             d="m 0,0 c 0,0 8.863,-6.787 19.328,-18.941 4.289,9.255 7.172,20.131 7.668,32.848 0,0 14.953,-12.95 32.26,-34.328 5.12,6.089 8.653,13.773 10.312,22.077 0,0 12.253,-8.304 30.231,-28.037 -2.656,35.768 -32.516,63.964 -68.963,63.964 -38.187,0 -69.149,-30.957 -69.149,-69.154 0,-10.655 2.414,-20.751 6.72,-29.763 C -22.157,-54.101 -6.13,-36.801 0,0"
             style="fill:#224681;fill-opacity:1;fill-rule:nonzero;stroke:none"
             id="path38"
             inkscape:connector-curvature="0" />
        </g>
      </g>
    </g>
    <g
       transform="matrix(1.25,0,0,-1.25,-113.392,876.58498)"
       id="g40">
      <g
         id="g42">
        <g
           id="g48">
          <g
             id="g50">
            <path
               d="m 90.272,299.767 c 8.247,2.514 16.939,4.648 25.697,6.01 l 0,0 c 1.361,4.733 2.545,9.904 3.487,15.57 l 0,0 1.134,6.812 5.485,-4.201 c 0.324,-0.247 6.927,-5.339 15.49,-14.54 l 0,0 c 2.866,7.879 4.483,16.364 4.833,25.319 l 0,0 0.341,8.631 6.527,-5.657 c 0.583,-0.496 13.535,-11.778 29.366,-30.719 l 0,0 c 3.036,4.711 5.229,10.202 6.415,16.146 l 0,0 1.225,6.133 5.177,-3.512 c 0.425,-0.287 8.648,-5.919 21.414,-18.666 l 0,0 c -3.223,11.221 -9.444,21.427 -18.153,29.551 l 0,0 c -12.071,11.256 -27.811,17.448 -44.323,17.448 l 0,0 c -32.209,0 -59.01,-23.545 -64.115,-54.325"
               style="fill:url(#linearGradient52);stroke:none"
               id="path60"
               inkscape:connector-curvature="0" />
          </g>
        </g>
      </g>
    </g>
    <g
       transform="matrix(1.25,0,0,-1.25,-113.392,876.58498)"
       id="g62">
      <g
         id="g64">
        <g
           id="g70">
          <g
             id="g72">
            <path
               d="m 95.467,257.494 c 29.49,10.742 42.86,37.071 42.86,37.071 l 0,0 c -3.578,5.313 -11.592,14.605 -11.592,14.605 l 0,0 C 122.916,273.95 95.467,257.494 95.467,257.494"
               style="fill:url(#linearGradient74);stroke:none"
               id="path82"
               inkscape:connector-curvature="0" />
          </g>
        </g>
      </g>
    </g>
    <g
       transform="matrix(1.25,0,0,-1.25,-113.392,876.58498)"
       id="g84">
      <g
         id="g86">
        <g
           id="g92">
          <g
             id="g94">
            <path
               d="m 101.261,253.795 c 50.676,7.877 75.326,40.292 75.326,40.292 l 0,0 c -2.803,4.351 -20.779,25.883 -20.779,25.883 l 0,0 c -4.304,-43.55 -54.547,-66.175 -54.547,-66.175"
               style="fill:url(#linearGradient96);stroke:none"
               id="path104"
               inkscape:connector-curvature="0" />
          </g>
        </g>
      </g>
    </g>
    <g
       transform="matrix(1.25,0,0,-1.25,-113.392,876.58498)"
       id="g106">
      <g
         id="g108">
        <g
           id="g114">
          <g
             id="g116">
            <path
               d="m 111.526,249.553 c 74.018,-20.41 124.813,16.776 124.813,16.776 l 0,0 c -17.398,20.553 -39.135,40.072 -39.135,40.072 l 0,0 c -23.161,-45.007 -85.678,-56.848 -85.678,-56.848"
               style="fill:url(#linearGradient118);stroke:none"
               id="path126"
               inkscape:connector-curvature="0" />
          </g>
        </g>
      </g>
    </g>
  </g>
</svg>
