<svg xmlns="http://www.w3.org/2000/svg" aria-label="rew" viewBox="0 0 40 40">
    		<path d="M382.41,410a7.29,7.29,0,0,0-3.28-2.14,5.74,5.74,0,0,1-2.48-1.51,2.75,2.75,0,0,1-.56-1.68,3,3,0,0,1,.69-2,2.19,2.19,0,0,1,1.79-.82,2.43,2.43,0,0,1,1.81.77,4.52,4.52,0,0,1,1.09,2.27l0,0.17,1.55-.64,0-.12a6.75,6.75,0,0,0-.72-2,4.57,4.57,0,0,0-1.65-1.67,4.17,4.17,0,0,0-2.1-.56,3.65,3.65,0,0,0-3,1.42,5.19,5.19,0,0,0-1.12,3.35,4.48,4.48,0,0,0,1,3,8.11,8.11,0,0,0,3.33,2.11,5.75,5.75,0,0,1,2.2,1.26,3,3,0,0,1,.7,2,3.4,3.4,0,0,1-.78,2.23,2.56,2.56,0,0,1-2.11.93,2.59,2.59,0,0,1-1.63-.52,3.84,3.84,0,0,1-1.1-1.41,7.14,7.14,0,0,1-.46-1.54l0-.17-0.16.06-1.44.52,0,0.12a7.67,7.67,0,0,0,.74,2.22,5.11,5.11,0,0,0,1.72,1.89,4.25,4.25,0,0,0,2.34.69h0a4.05,4.05,0,0,0,3.28-1.51,5.5,5.5,0,0,0,1.23-3.61,5.14,5.14,0,0,0-.91-3.11m-15.09-1.66h-2.56V402.2h3a2.58,2.58,0,0,1,2.12.84,3.28,3.28,0,0,1,.71,2.18,3.7,3.7,0,0,1-.37,1.68,2.09,2.09,0,0,1-1,1,4.54,4.54,0,0,1-1.9.43m4.23-.37a5.17,5.17,0,0,0,.71-2.71,5.49,5.49,0,0,0-.6-2.55A3.9,3.9,0,0,0,370,401a5.92,5.92,0,0,0-2.74-.55h-4v17.45h1.52v-7.78H368l3,7.78h1.63l-3.11-8.19a4.31,4.31,0,0,0,2-1.73m-17.47,1.65h4.64v-1.94h-4.64v-5.31h6.24v-1.92h-7.76v17.45h8.36v-1.94h-6.84V409.6Zm-13.23-7.24h4v15.51h1.52V402.36h4v-1.93h-9.58v1.93Zm-5.63,5.48a5.72,5.72,0,0,1-2.48-1.51,2.74,2.74,0,0,1-.56-1.68,3,3,0,0,1,.69-2,2.18,2.18,0,0,1,1.78-.82,2.45,2.45,0,0,1,1.81.77,4.52,4.52,0,0,1,1.08,2.27l0,0.17,1.56-.64,0-.12a6.73,6.73,0,0,0-.72-2,4.58,4.58,0,0,0-1.65-1.67,4.19,4.19,0,0,0-2.1-.56,3.64,3.64,0,0,0-3,1.42,5.19,5.19,0,0,0-1.12,3.35,4.46,4.46,0,0,0,1,3,8.09,8.09,0,0,0,3.33,2.11,5.8,5.8,0,0,1,2.2,1.26,3,3,0,0,1,.69,2,3.39,3.39,0,0,1-.77,2.23,2.85,2.85,0,0,1-3.74.41,3.76,3.76,0,0,1-1.1-1.41,7.36,7.36,0,0,1-.46-1.54l0-.17-0.16.06-1.44.52,0,0.12a7.66,7.66,0,0,0,.73,2.21,5.13,5.13,0,0,0,1.72,1.89,4.23,4.23,0,0,0,2.34.68h0a4.05,4.05,0,0,0,3.28-1.51,5.5,5.5,0,0,0,1.23-3.61,5.13,5.13,0,0,0-.9-3.11,7.26,7.26,0,0,0-3.28-2.14m-13.36,2.76,2-8.27,2,8.27h-4Zm0.9-10.17,0,0.11-4.16,17.34h1.54l1.28-5.32h4.89l1.27,5.32h1.54L325,400.43h-2.2Zm-11.93,13.4-3.59-13.4h-2.33v17.45h1.52V403.24l3.91,14.64h0.95l3.93-14.65v14.65h1.5V400.43H314.4ZM300,415a3.21,3.21,0,0,1-2.49,1.08h-3.18v-6.26h2.82a4.41,4.41,0,0,1,1.91.4,2.66,2.66,0,0,1,1.22,1.11,3.31,3.31,0,0,1,.4,1.63,2.91,2.91,0,0,1-.68,2m-5.67-12.75h3.06a2.81,2.81,0,0,1,2.23.83,2.94,2.94,0,0,1,.74,2,2.9,2.9,0,0,1-.83,2.1,4.21,4.21,0,0,1-3,.86h-2.15v-5.81Zm5.52,6.63a4.42,4.42,0,0,0,1.57-1.65,4.75,4.75,0,0,0,.59-2.3,4.6,4.6,0,0,0-1.19-3.12,4.43,4.43,0,0,0-3.51-1.36h-4.5v17.45h4.75a4.4,4.4,0,0,0,3.53-1.48,4.9,4.9,0,0,0,.58-5.76,4.72,4.72,0,0,0-1.82-1.77m-16.22.74h4.64v-1.94h-4.64v-5.31h6.24v-1.92h-7.76v17.45h8.36v-1.94h-6.84V409.6Zm-7.51,3.88-2.52-13.05h-1.5l-2.54,13.05L267,400.43h-1.51l0,0.17,3.32,17.27h1.34l2.63-13.49,2.61,13.49h1.31l3.39-17.45h-1.48Zm79.49-17.78h-5.75v-4.23h3.91V390h-3.91v-3.54h5.25v-1.4h-6.57v12h7.08V395.7Zm-13.52,1.42h1.33v-10.6h3.38v-1.41h-8.11v1.41h3.4v10.6Zm-8.71-5.06,1.63-5.52,1.62,5.52h-3.25Zm0.7-7,0,0.1-3.52,11.91h1.35l1.08-3.63h4.09l1.07,3.63h1.34l-3.51-12h-1.87Zm-7.55,12h1.33V386.52h3.38v-1.41h-8.11v1.41h3.4v10.61ZM322,393.81a3.13,3.13,0,0,0-.78-2.16,6.41,6.41,0,0,0-2.77-1.47,5,5,0,0,1-2.08-1,1.61,1.61,0,0,1-.46-1.11,1.78,1.78,0,0,1,.56-1.3,2,2,0,0,1,1.5-.55,2.3,2.3,0,0,1,1.51.52,2.84,2.84,0,0,1,.9,1.53l0,0.15,1.36-.46,0-.13a4.12,4.12,0,0,0-.61-1.38,3.61,3.61,0,0,0-1.4-1.15,4.18,4.18,0,0,0-1.77-.38,3.38,3.38,0,0,0-2.51,1,3.22,3.22,0,0,0-1,2.33,2.78,2.78,0,0,0,.87,2.08,7.07,7.07,0,0,0,2.81,1.45,5.25,5.25,0,0,1,1.84.86,1.76,1.76,0,0,1,.57,1.32,2,2,0,0,1-.64,1.48,2.4,2.4,0,0,1-1.77.63,2.53,2.53,0,0,1-1.37-.35,2.73,2.73,0,0,1-.92-1,4.2,4.2,0,0,1-.38-1l0-.15-0.14,0-1.11.33-0.13,0,0,0.14a4.66,4.66,0,0,0,.63,1.53,3.91,3.91,0,0,0,1.46,1.3,4.22,4.22,0,0,0,2,.47,3.79,3.79,0,0,0,2.78-1,3.42,3.42,0,0,0,1.05-2.51m-9.08,1.89h-5.76v-4.23H311V390h-3.9v-3.54h5.25v-1.4H305.8v12h7.08V395.7Zm-13.37,0h-5.14V385.11h-1.32v12h6.45v-1.44Zm-14.06-3.62,1.64-5.52,1.62,5.52h-3.25Zm0.7-7,0,0.1-3.52,11.91H284l1.08-3.63h4.09l1.06,3.63h1.34l-3.5-12h-1.87Zm-9.94,6.36h3.9V390h-3.9v-3.54h5.25v-1.4h-6.57v12H282V395.7h-5.76v-4.23Zm-9.77-5.06h2.51a2.46,2.46,0,0,1,1.77.57,1.93,1.93,0,0,1,.58,1.45,2.06,2.06,0,0,1-.3,1.12,1.61,1.61,0,0,1-.84.67,4.63,4.63,0,0,1-1.6.29h-2.13v-4.1Zm0,5.39h2.7l2.52,5.32h1.43l-2.62-5.61a3.54,3.54,0,0,0,1.68-1.18,3.09,3.09,0,0,0,.61-1.88,3.24,3.24,0,0,0-.51-1.78,3,3,0,0,0-1.4-1.19,6,6,0,0,0-2.31-.37h-3.41v12h1.33V391.8Z" transform="translate(-218.27 -382.72)"></path><path class="cls-2" d="M231.86,399c-0.92-1.36-3-3.74-3-3.74a18.47,18.47,0,0,1-8,13.23,21.56,21.56,0,0,0,11-9.49" transform="translate(-218.27 -382.72)"></path><path class="cls-2" d="M221.68,410.88a17.71,17.71,0,0,0,27.64,1.19c-6.5,2-15.8,2.78-27.64-1.19" transform="translate(-218.27 -382.72)"></path><path class="cls-2" d="M222.37,409.47c13-2,19.29-10.32,19.29-10.32-0.72-1.11-5.32-6.63-5.32-6.63-1.1,11.15-14,16.94-14,16.94" transform="translate(-218.27 -382.72)"></path><path class="cls-2" d="M246.94,396a25.14,25.14,0,0,1-9.86,9.86,42.09,42.09,0,0,1-12.07,4.7c19,5.23,32-4.3,32-4.3a122,122,0,0,0-10-10.26" transform="translate(-218.27 -382.72)"></path><path class="cls-2" d="M219.81,397.42a16.45,16.45,0,0,1,31.73-2.29,40.35,40.35,0,0,0-4.95-4.24L245,389.81l-0.37,1.86a11.79,11.79,0,0,1-1.47,3.84,74.27,74.27,0,0,0-7.37-7.68l-2-1.72-0.1,2.62a21.33,21.33,0,0,1-1.12,6.12,34.58,34.58,0,0,0-3.77-3.51l-1.67-1.28-0.35,2.07A35.39,35.39,0,0,1,226,396a47.9,47.9,0,0,0-6.17,1.43m8.27-5.07A37.1,37.1,0,0,1,233,397.2a21.84,21.84,0,0,0,2-8.41,75.79,75.79,0,0,1,8.26,8.79,12.64,12.64,0,0,0,2.64-5.65,49.66,49.66,0,0,1,7.74,7.18A17.71,17.71,0,1,0,220,408.05c2.42-1.85,6.52-6.28,8.09-15.7" transform="translate(-218.27 -382.72)"></path>
</svg>